<?xml version="1.0" standalone="no"?>
<!DOCTYPE svg PUBLIC "-//W3C//DTD SVG 20010904//EN"
 "http://www.w3.org/TR/2001/REC-SVG-20010904/DTD/svg10.dtd">
<svg version="1.0" xmlns="http://www.w3.org/2000/svg"
 width="1181.000000pt" height="1170.000000pt" viewBox="0 0 1181.000000 1170.000000"
 preserveAspectRatio="xMidYMid meet">

<g transform="translate(0.000000,1170.000000) scale(0.100000,-0.100000)"
fill="#000000" stroke="none">
<path d="M560 11192 c-19 -9 -45 -32 -57 -51 -54 -81 -14 -263 121 -541 25
-52 46 -107 46 -121 0 -14 14 -59 30 -99 35 -84 147 -270 163 -270 5 0 7 -3 4
-7 -4 -3 1 -12 11 -20 9 -8 10 -11 3 -7 -21 11 39 -95 109 -191 31 -44 108
-156 170 -250 454 -682 790 -1045 1405 -1520 189 -146 357 -256 491 -322 l111
-54 -34 -112 c-47 -154 -87 -339 -122 -563 -52 -337 -56 -391 -77 -899 -28
-703 -24 -967 18 -1150 24 -107 113 -339 165 -433 20 -37 65 -110 100 -162
l63 -96 -41 -74 c-22 -41 -56 -101 -75 -134 -19 -32 -34 -62 -34 -67 0 -16
-50 -122 -55 -117 -3 3 4 27 15 53 29 67 18 68 -14 1 -78 -164 -176 -450 -176
-511 0 -11 -20 -88 -45 -170 -25 -83 -56 -204 -70 -270 -13 -66 -42 -190 -64
-275 -50 -197 -67 -310 -86 -593 -16 -237 -13 -280 22 -334 8 -12 23 -23 33
-23 20 0 17 -19 40 285 33 425 67 700 106 845 84 311 253 809 341 1004 52 116
134 286 139 286 1 0 20 -17 40 -38 36 -36 30 -20 -10 25 -11 13 -17 25 -15 28
3 2 43 -39 90 -92 46 -53 118 -126 159 -162 98 -86 313 -239 470 -333 121 -73
474 -254 594 -304 75 -32 176 -64 176 -55 0 3 -51 32 -113 63 -61 32 -166 89
-232 129 -66 39 -181 107 -255 151 -182 108 -368 251 -522 398 -71 67 -128
125 -128 129 0 3 24 12 52 19 128 29 318 155 425 280 159 187 217 347 216 602
-1 215 -52 375 -166 519 -62 78 -179 179 -269 233 -129 77 -327 122 -450 104
-54 -8 -174 -78 -243 -141 l-50 -46 50 36 c27 20 86 54 130 76 140 70 272 64
450 -20 118 -55 198 -112 296 -212 128 -128 182 -246 210 -458 15 -110 6 -207
-27 -312 -57 -182 -128 -302 -250 -419 -43 -42 -57 -52 -38 -28 16 21 32 38
36 38 4 0 14 15 22 33 8 17 26 46 41 62 15 17 33 42 40 56 l14 26 -46 -24
c-72 -36 -142 -32 -252 15 -123 53 -176 87 -245 151 -70 67 -96 104 -186 262
-77 137 -128 279 -138 383 -11 130 -19 13 -9 -137 8 -120 7 -146 -12 -237 -12
-57 -21 -123 -21 -147 0 -51 44 -154 84 -197 l27 -29 16 22 c12 18 14 45 8
162 -4 77 -11 154 -16 172 -20 72 -6 46 24 -43 51 -151 150 -296 307 -451 144
-142 219 -188 258 -158 16 13 16 12 3 -4 -30 -38 -209 -114 -308 -131 -27 -4
-36 0 -70 37 -179 195 -326 445 -408 690 -53 158 -61 244 -46 505 7 119 13
231 15 247 2 17 6 134 10 260 14 468 40 766 97 1100 56 333 167 739 246 899
40 80 3 48 -47 -41 -62 -109 -76 -127 -95 -119 -13 5 -10 17 25 84 45 88 46
92 25 92 -19 0 -38 -31 -61 -100 -10 -30 -20 -57 -21 -59 -2 -3 -16 7 -31 21
-15 15 -72 51 -127 81 -166 90 -280 163 -408 259 -296 224 -729 611 -789 708
-21 33 -84 413 -103 620 -25 282 -17 616 22 850 15 93 44 202 62 228 6 11 48
-9 183 -86 195 -112 363 -217 481 -299 44 -30 154 -107 245 -170 260 -180 518
-388 732 -588 41 -39 140 -130 220 -202 154 -139 351 -337 414 -415 21 -27 42
-48 47 -48 5 0 14 11 20 24 15 33 -24 112 -100 203 -68 80 -636 625 -836 801
-95 83 -209 167 -420 308 -159 107 -326 219 -370 250 -44 30 -134 87 -200 126
-66 39 -167 101 -225 137 -124 77 -307 173 -451 237 -57 25 -180 82 -273 127
-128 61 -203 90 -305 118 -75 20 -174 50 -221 68 -99 36 -176 40 -230 13z
m217 -108 c60 -20 155 -55 213 -79 58 -23 141 -55 185 -70 139 -47 645 -301
645 -324 0 -4 -4 -11 -8 -17 -5 -5 -17 -38 -27 -74 -10 -36 -19 -66 -20 -67 0
-1 -115 57 -255 130 -140 72 -327 167 -415 210 -164 81 -364 188 -447 239 -26
16 -51 27 -57 24 -19 -12 -20 25 -1 44 28 28 65 25 187 -16z m-18 -779 c0 -5
-6 1 -14 15 -8 14 -14 30 -14 35 0 6 6 -1 14 -15 8 -14 14 -29 14 -35z m611
-72 c-1 -5 -7 -19 -15 -33 l-14 -25 -1 26 c0 14 3 29 7 32 9 9 23 9 23 0z
m-450 -213 c6 -11 8 -20 6 -20 -3 0 -10 9 -16 20 -6 11 -8 20 -6 20 3 0 10 -9
16 -20z m35 -56 c9 -15 12 -23 6 -20 -11 7 -35 46 -28 46 3 0 12 -12 22 -26z
m2265 -179 c26 -31 -7 -14 -41 22 l-34 36 31 -21 c17 -12 37 -28 44 -37z"/>
<path d="M11080 11120 c-117 -20 -407 -110 -670 -207 -519 -193 -1168 -544
-1573 -850 -408 -309 -793 -727 -922 -1001 -30 -61 -67 -133 -84 -158 -17 -25
-31 -49 -31 -55 0 -14 -28 -11 -33 4 -3 6 -6 2 -6 -9 -1 -22 -1 -22 -35 -4
-19 9 -83 50 -141 90 -121 82 -248 145 -397 196 -237 82 -482 118 -927 135
-361 15 -509 7 -801 -42 -219 -36 -360 -73 -531 -139 -224 -87 -421 -160 -479
-177 -169 -49 -440 -240 -440 -310 0 -20 5 -17 93 41 150 99 314 172 641 286
350 122 437 147 651 189 291 58 374 65 705 66 362 0 516 -17 775 -85 242 -64
391 -125 601 -246 61 -35 113 -58 137 -60 22 -2 62 -18 88 -35 38 -24 55 -29
79 -24 17 4 30 2 30 -3 0 -6 14 -15 30 -21 33 -11 38 -6 15 19 -14 15 -8 29
51 139 83 155 162 286 227 376 310 430 813 840 1479 1206 99 54 460 229 465
225 1 -1 -16 -58 -37 -128 -48 -155 -76 -293 -90 -436 -13 -137 -13 -432 0
-598 10 -130 53 -372 72 -408 9 -16 -4 -32 -83 -113 -244 -246 -701 -601 -951
-738 -38 -20 -68 -34 -68 -31 0 3 19 15 43 27 55 28 285 179 362 237 171 131
284 226 278 235 -3 5 -2 8 3 4 5 -3 68 56 139 130 72 74 128 136 125 138 -3 1
2 10 10 21 10 13 4 11 -20 -7 -19 -14 -59 -43 -87 -63 -58 -41 -73 -60 -20
-26 l32 22 -29 -26 c-17 -13 -33 -23 -38 -20 -4 3 -67 -35 -140 -84 -315 -211
-628 -390 -948 -542 -118 -57 -221 -108 -228 -115 -11 -10 -5 -19 33 -51 47
-39 80 -86 68 -98 -4 -3 -22 -6 -42 -7 l-36 0 42 -21 c46 -24 47 -25 115 -213
55 -154 72 -228 113 -485 35 -229 63 -456 110 -905 31 -304 52 -435 107 -670
40 -171 42 -188 42 -335 0 -121 -5 -177 -22 -256 -64 -295 -118 -411 -313
-672 -164 -217 -195 -252 -225 -252 -40 0 -165 30 -208 49 l-41 19 33 -1 c31
0 47 7 47 21 0 4 36 43 80 88 44 44 97 110 118 145 21 35 63 105 93 154 76
125 109 198 133 293 23 89 51 312 51 409 0 49 5 69 27 102 20 30 31 40 45 35
23 -7 23 -5 -6 58 -21 48 -80 118 -89 107 -3 -2 -1 -47 2 -99 4 -52 4 -138 0
-190 -3 -52 -6 -75 -7 -50 -1 26 -7 51 -14 58 -7 7 -9 12 -5 12 4 0 3 9 -3 20
-6 11 -18 20 -26 20 -8 0 -13 3 -11 8 3 4 -1 12 -8 19 -10 9 -14 -5 -19 -70
-16 -197 -53 -380 -97 -484 -34 -80 -175 -289 -244 -362 -38 -40 -105 -96
-148 -124 -69 -45 -77 -54 -72 -75 6 -24 5 -24 -33 6 -191 151 -312 453 -312
774 0 169 17 245 79 373 84 169 185 271 343 345 85 40 220 58 293 40 157 -39
331 -177 445 -350 41 -62 53 -92 67 -160 9 -46 18 -79 21 -72 6 18 -24 162
-47 223 -41 108 -120 198 -254 288 -74 50 -190 101 -215 94 -23 -6 -31 12 -9
20 24 10 -19 7 -124 -9 -107 -16 -220 -49 -292 -85 -98 -51 -212 -193 -273
-342 -122 -300 -89 -649 93 -984 81 -150 143 -218 258 -285 90 -52 211 -98
257 -98 l32 0 -30 -31 c-16 -17 -83 -77 -149 -133 -66 -55 -148 -127 -182
-158 -102 -95 -297 -233 -406 -288 -56 -29 -156 -83 -222 -121 -74 -42 -143
-74 -180 -82 -33 -8 -94 -30 -135 -50 -78 -37 -83 -48 -12 -23 23 8 87 26 144
40 146 35 280 85 453 170 215 106 535 317 705 466 36 31 90 75 120 97 55 41
168 153 208 206 l21 28 25 -43 c36 -63 132 -295 166 -403 7 -22 50 -150 96
-283 135 -393 196 -694 239 -1177 18 -204 19 -319 4 -457 -11 -103 -17 -119
-64 -190 -46 -69 -18 -39 45 48 37 51 72 113 86 152 l24 67 0 -90 c2 -142 15
-254 33 -272 14 -14 17 -13 30 14 48 91 66 273 48 458 -19 180 -108 701 -147
858 -73 293 -180 612 -269 807 -37 81 -77 191 -72 197 9 8 43 -43 83 -124 47
-95 53 -97 28 -12 -24 81 -117 256 -210 397 -46 68 -84 131 -84 138 0 7 27 55
61 106 82 125 163 288 204 412 100 303 99 671 -5 1106 -70 298 -104 558 -140
1075 -14 203 -43 404 -74 521 -30 110 -95 278 -136 349 -17 29 -30 55 -30 58
0 4 26 14 58 23 110 31 375 179 592 331 428 300 705 552 1043 948 190 223 299
377 489 690 154 254 178 297 298 530 56 110 113 218 126 240 39 69 94 222 94
265 0 24 -9 57 -22 80 -37 63 -104 81 -228 60z m-5 -120 c8 -26 -10 -57 -43
-74 -15 -7 -115 -41 -222 -76 -214 -69 -333 -117 -431 -175 -112 -67 -302
-166 -307 -161 -6 6 35 157 45 167 15 13 257 121 393 174 149 58 254 92 423
135 136 35 134 35 142 10z m186 -77 c-9 -16 -10 -16 -11 4 0 12 3 30 7 40 7
16 8 16 11 -4 2 -12 -1 -30 -7 -40z m-1133 -1034 c-10 -22 -22 -39 -24 -36 -8
7 24 77 35 77 5 0 0 -18 -11 -41z m-3104 -741 c44 -12 76 -23 71 -25 -6 -1
-48 8 -95 21 -47 14 -79 25 -71 25 8 1 51 -9 95 -21z m210 -68 c56 -22 111
-47 122 -55 10 -9 -8 -4 -41 11 -33 14 -94 39 -135 55 -41 15 -69 28 -62 29 8
0 60 -18 116 -40z m284 -153 c62 -38 115 -74 118 -79 4 -6 -4 -5 -16 2 -28 15
-233 150 -240 158 -8 8 17 -6 138 -81z m2342 48 c-7 -8 -18 -15 -24 -15 -6 0
-2 7 8 15 25 19 32 19 16 0z m-40 -19 c0 -2 -8 -10 -17 -17 -16 -13 -17 -12
-4 4 13 16 21 21 21 13z m-2020 -136 c0 -5 -5 -10 -11 -10 -5 0 -7 5 -4 10 3
6 8 10 11 10 2 0 4 -4 4 -10z m1250 -625 c0 -3 -33 -21 -72 -41 -84 -42 -84
-36 0 12 56 33 72 39 72 29z m-290 -80 c0 -6 -97 -55 -107 -55 -4 1 17 14 47
30 61 32 60 32 60 25z m-240 -62 c0 -7 -39 17 -46 28 -3 6 5 3 20 -6 14 -10
26 -19 26 -22z m159 -339 c44 -122 48 -154 6 -49 -58 146 -67 173 -50 151 8
-10 28 -56 44 -102z m-618 -3411 c13 -16 12 -17 -3 -4 -10 7 -18 15 -18 17 0
8 8 3 21 -13z m59 -39 c0 -2 -9 0 -20 6 -11 6 -20 13 -20 16 0 2 9 0 20 -6 11
-6 20 -13 20 -16z m-291 -632 c-35 -26 -77 -52 -85 -52 -4 0 15 16 42 35 49
35 87 50 43 17z"/>
<path d="M1800 9386 c0 -2 8 -10 18 -17 15 -13 16 -12 3 4 -13 16 -21 21 -21
13z"/>
<path d="M1955 9260 c10 -11 20 -20 23 -20 3 0 -3 9 -13 20 -10 11 -20 20 -23
20 -3 0 3 -9 13 -20z"/>
<path d="M2035 9170 c10 -11 20 -20 23 -20 3 0 -3 9 -13 20 -10 11 -20 20 -23
20 -3 0 3 -9 13 -20z"/>
<path d="M1865 9120 c10 -11 20 -20 23 -20 3 0 -3 9 -13 20 -10 11 -20 20 -23
20 -3 0 3 -9 13 -20z"/>
<path d="M2167 9025 c40 -44 109 -116 154 -160 53 -50 38 -32 -41 50 -169 178
-196 204 -113 110z"/>
<path d="M1890 9086 c0 -2 8 -10 18 -17 15 -13 16 -12 3 4 -13 16 -21 21 -21
13z"/>
<path d="M9909 9033 c-13 -16 -12 -17 4 -4 16 13 21 21 13 21 -2 0 -10 -8 -17
-17z"/>
<path d="M1965 9000 c10 -11 20 -20 23 -20 3 0 -3 9 -13 20 -10 11 -20 20 -23
20 -3 0 3 -9 13 -20z"/>
<path d="M2110 8857 c0 -1 35 -36 78 -77 l77 -75 -75 78 c-69 71 -80 82 -80
74z"/>
<path d="M2460 8735 c19 -19 36 -35 39 -35 3 0 -10 16 -29 35 -19 19 -36 35
-39 35 -3 0 10 -16 29 -35z"/>
<path d="M2590 8616 c0 -2 8 -10 18 -17 15 -13 16 -12 3 4 -13 16 -21 21 -21
13z"/>
<path d="M2685 8530 c10 -11 20 -20 23 -20 3 0 -3 9 -13 20 -10 11 -20 20 -23
20 -3 0 3 -9 13 -20z"/>
<path d="M2730 8496 c0 -2 8 -10 18 -17 15 -13 16 -12 3 4 -13 16 -21 21 -21
13z"/>
<path d="M2890 8376 c0 -2 8 -10 18 -17 15 -13 16 -12 3 4 -13 16 -21 21 -21
13z"/>
<path d="M2940 8336 c0 -2 8 -10 18 -17 15 -13 16 -12 3 4 -13 16 -21 21 -21
13z"/>
<path d="M2980 8307 c0 -3 18 -20 40 -37 22 -17 40 -29 40 -27 0 3 -18 20 -40
37 -22 17 -40 29 -40 27z"/>
<path d="M3070 8236 c0 -2 8 -10 18 -17 15 -13 16 -12 3 4 -13 16 -21 21 -21
13z"/>
<path d="M6656 7508 c-28 -40 -58 -147 -52 -183 9 -44 69 -98 160 -141 81 -39
304 -93 411 -100 39 -2 91 -6 118 -9 66 -6 59 11 -10 25 -349 71 -534 135
-617 213 -44 42 -46 76 -12 160 26 61 26 70 2 35z"/>
<path d="M5165 7469 c5 -7 24 -33 42 -57 18 -24 33 -52 33 -63 0 -30 -86 -116
-146 -145 -68 -33 -183 -42 -330 -24 -72 8 -109 9 -116 2 -7 -7 -4 -13 9 -20
33 -18 171 -42 242 -42 65 0 70 -2 88 -29 18 -29 80 -101 86 -101 10 0 -8 71
-21 82 -14 12 -14 10 -3 -10 23 -43 4 -34 -29 12 l-31 46 23 9 c13 5 37 12 55
15 49 11 149 80 183 127 38 53 38 81 -1 130 -30 39 -101 96 -84 68z"/>
<path d="M4560 7336 c-74 -35 -188 -84 -253 -110 -105 -41 -277 -122 -277
-129 0 -4 327 100 385 124 78 30 319 179 290 178 -5 0 -71 -28 -145 -63z"/>
<path d="M4789 7361 c-39 -8 -107 -46 -154 -87 -34 -29 -19 -23 80 35 38 23
77 41 87 41 9 0 20 5 23 10 3 6 5 9 3 9 -2 -1 -19 -4 -39 -8z"/>
<path d="M7150 7319 c19 -6 114 -34 211 -64 269 -82 618 -144 419 -74 -171 60
-559 150 -635 148 l-30 -1 35 -9z"/>
<path d="M7042 7315 c10 -10 181 -75 186 -71 5 6 -49 30 -127 57 -57 20 -68
22 -59 14z"/>
<path d="M6709 7125 c-52 -27 -69 -45 -74 -77 -1 -13 -6 -36 -10 -53 l-7 -30
22 35 c12 19 45 59 73 87 28 29 49 54 46 57 -2 2 -25 -6 -50 -19z"/>
<path d="M5057 6964 c-3 -3 -99 -7 -214 -9 -137 -2 -259 -10 -358 -23 -82 -11
-177 -23 -210 -27 -33 -3 -112 -15 -175 -25 -63 -11 -171 -26 -240 -35 -134
-16 -319 -52 -340 -65 -27 -17 2 -33 50 -27 l46 6 -9 -67 c-13 -95 -3 -235 23
-317 89 -286 299 -493 544 -540 119 -23 246 -19 362 10 135 34 209 73 298 156
207 193 300 469 277 819 -4 61 -3 65 17 68 28 4 29 22 2 22 -24 0 -26 15 -3
24 9 4 13 10 7 15 -12 11 -70 22 -77 15z m20 -223 c-6 -147 -25 -248 -71 -383
-44 -129 -85 -196 -181 -295 -64 -64 -97 -90 -155 -117 -107 -51 -188 -69
-305 -69 -184 0 -321 54 -454 179 -125 117 -209 260 -246 416 -16 68 -20 254
-6 276 6 10 60 18 182 28 96 7 187 15 204 16 27 3 30 0 37 -39 9 -56 29 -91
75 -134 80 -77 185 -106 267 -75 48 18 149 116 166 161 5 14 10 46 10 69 l0
43 178 11 c97 7 198 12 224 12 50 0 78 19 31 21 l-28 1 30 7 c17 4 34 5 39 3
5 -3 6 -60 3 -131z m-853 -3 c8 -13 8 -23 0 -35 -18 -29 -51 -28 -70 3 -17 25
-17 27 1 41 25 17 55 13 69 -9z"/>
<path d="M3814 6348 c16 -21 30 -38 33 -38 8 0 -16 36 -38 55 -19 16 -18 13 5
-17z"/>
<path d="M3910 6363 c0 -13 69 -120 70 -108 0 6 -11 27 -25 47 -14 20 -25 41
-25 47 0 5 -4 13 -10 16 -5 3 -10 2 -10 -2z"/>
<path d="M3870 6268 c12 -20 28 -42 37 -50 14 -11 15 -11 5 7 -6 11 -23 34
-37 50 l-25 30 20 -37z"/>
<path d="M6778 6903 c-65 -3 -79 -7 -88 -24 -12 -22 -6 -39 14 -39 9 0 15 -29
19 -102 11 -178 75 -385 162 -518 47 -73 172 -221 225 -267 49 -43 119 -75
235 -109 87 -25 116 -29 225 -29 109 1 134 4 198 27 142 51 285 158 368 273
134 189 181 431 129 671 l-7 31 71 -5 c85 -6 93 8 19 30 -109 33 -199 48 -363
58 -153 9 -1016 11 -1207 3z m439 -69 c49 -6 52 -8 58 -42 9 -50 36 -99 84
-154 99 -112 268 -108 386 10 32 32 40 51 59 135 l6 27 199 0 199 0 8 -66 c10
-96 -11 -326 -36 -399 -28 -82 -78 -153 -174 -250 -92 -93 -179 -142 -301
-168 -213 -46 -349 -23 -513 86 -161 107 -279 256 -350 440 -50 126 -59 161
-76 281 l-13 95 56 4 c104 6 356 7 408 1z m176 -10 c9 -9 -23 -62 -42 -69 -19
-7 -38 12 -46 48 -7 26 -6 27 37 27 25 0 48 -3 51 -6z"/>
<path d="M6940 6507 c0 -15 58 -122 80 -147 l22 -25 -22 38 c-13 21 -35 62
-51 90 -16 29 -29 48 -29 44z"/>
<path d="M7109 6390 c17 -25 41 -56 52 -70 19 -23 19 -22 -1 15 -13 22 -36 54
-53 70 l-30 30 32 -45z"/>
<path d="M7076 6323 c21 -40 40 -71 42 -68 6 6 -34 85 -58 115 -12 14 -4 -8
16 -47z"/>
<path d="M7040 6326 c0 -2 8 -10 18 -17 15 -13 16 -12 3 4 -13 16 -21 21 -21
13z"/>
<path d="M5733 5964 c-35 -14 -63 -29 -63 -33 0 -25 140 -114 213 -136 l49
-14 111 60 c119 64 177 109 141 107 -10 0 -39 7 -64 17 -33 13 -83 19 -185 21
-133 4 -143 3 -202 -22z m337 -33 c0 -7 -28 -11 -80 -11 -43 0 -102 -5 -130
-11 -55 -12 -106 -6 -133 14 -14 10 17 13 163 16 128 2 180 0 180 -8z"/>
<path d="M8852 5830 c0 -19 2 -27 5 -17 2 9 2 25 0 35 -3 9 -5 1 -5 -18z"/>
<path d="M7939 5663 c-40 -43 -124 -155 -144 -193 -15 -27 10 3 57 70 25 36
67 89 93 118 59 65 54 69 -6 5z"/>
<path d="M8073 5664 l-28 -25 33 22 c17 13 32 24 32 26 0 8 -11 1 -37 -23z"/>
<path d="M3855 5630 c21 -22 41 -40 44 -40 3 0 -13 18 -34 40 -21 22 -41 40
-44 40 -3 0 13 -18 34 -40z"/>
<path d="M7986 5588 c-45 -51 -116 -176 -131 -228 -3 -14 16 20 44 75 27 55
71 124 96 153 26 28 44 52 42 52 -3 0 -26 -24 -51 -52z"/>
<path d="M8421 5580 c-52 -41 -58 -63 -20 -75 14 -5 33 4 64 30 50 40 49 39
35 66 -15 26 -21 25 -79 -21z"/>
<path d="M8523 5255 c0 -33 2 -45 4 -27 2 18 2 45 0 60 -2 15 -4 0 -4 -33z"/>
<path d="M5874 5146 c-106 -20 -175 -42 -303 -97 -246 -106 -388 -195 -491
-306 -71 -77 -102 -126 -49 -76 51 47 280 188 404 248 128 62 330 129 436 146
266 41 606 -56 1042 -297 66 -37 144 -87 174 -111 85 -69 61 -32 -38 59 -161
148 -302 231 -579 341 -236 94 -430 124 -596 93z"/>
<path d="M7865 4239 c-44 -16 -100 -40 -125 -52 -207 -108 -469 -236 -586
-286 -226 -97 -543 -178 -869 -221 -102 -13 -186 -30 -211 -41 -99 -46 -351
-86 -421 -67 -19 5 -39 8 -45 6 -5 -2 41 -16 104 -32 162 -41 252 -43 508 -12
356 44 428 56 543 91 135 41 452 158 439 163 -5 1 -59 -16 -121 -38 -115 -41
-137 -47 -111 -30 12 8 10 10 -9 10 -23 0 -23 1 -7 19 10 11 29 22 43 26 14 3
45 18 67 33 40 27 105 60 198 101 26 12 49 21 51 21 11 0 163 96 173 109 7 8
16 11 24 6 9 -6 11 -4 5 5 -6 10 -4 12 9 7 28 -11 184 71 168 88 -4 5 -1 5 6
1 7 -4 32 7 60 27 26 20 78 45 115 57 37 12 69 26 73 31 3 5 4 8 2 8 -2 -1
-39 -14 -83 -30z"/>
<path d="M3199 4232 c-3 -20 -2 -29 4 -23 5 5 7 19 5 32 -3 20 -5 19 -9 -9z"/>
<path d="M7980 4247 c0 -7 11 -28 25 -47 30 -41 32 -33 5 20 -21 41 -30 49
-30 27z"/>
<path d="M8587 4114 l-98 -102 33 -44 c43 -57 100 -181 135 -293 39 -129 38
-238 -4 -405 -18 -69 -35 -154 -38 -190 -3 -36 -13 -109 -21 -164 -8 -54 -13
-100 -10 -103 2 -2 14 10 27 28 13 18 17 29 10 25 -10 -7 -11 -4 -2 11 6 11 8
23 4 26 -3 4 0 19 6 35 15 36 22 122 10 122 -15 0 -10 60 6 76 17 18 20 34 5
34 -6 0 -2 10 10 22 11 12 19 27 18 32 0 6 1 18 4 26 3 8 17 50 31 93 20 60
24 83 17 103 -6 14 -10 49 -10 77 0 29 -4 67 -9 84 -5 18 -6 32 -3 32 24 -4
33 4 32 24 -5 52 1 117 9 117 5 0 24 -44 42 -97 18 -54 38 -103 45 -110 17
-18 64 -224 58 -254 -5 -20 -4 -21 6 -9 9 12 10 8 5 -20 -4 -22 -3 -30 3 -22
6 9 15 -16 27 -77 10 -50 21 -89 23 -86 14 14 -92 445 -167 676 -77 240 -80
251 -85 343 -2 43 -8 82 -13 86 -4 4 -52 -39 -106 -96z m117 -319 c-4 -8 -8
-15 -10 -15 -2 0 -4 7 -4 15 0 8 4 15 10 15 5 0 7 -7 4 -15z"/>
<path d="M4791 3778 c-14 -23 -14 -23 8 -4 22 20 25 26 13 26 -4 0 -13 -10
-21 -22z"/>
<path d="M4711 3294 c0 -11 3 -14 6 -6 3 7 2 16 -1 19 -3 4 -6 -2 -5 -13z"/>
<path d="M8759 3278 c-12 -26 -13 -51 -7 -118 6 -70 3 -111 -18 -237 -14 -84
-24 -161 -22 -170 2 -10 16 56 31 147 29 175 49 390 38 403 -4 4 -14 -7 -22
-25z m8 -40 c-3 -8 -6 -5 -6 6 -1 11 2 17 5 13 3 -3 4 -12 1 -19z m0 -80 c-3
-7 -5 -2 -5 12 0 14 2 19 5 13 2 -7 2 -19 0 -25z"/>
<path d="M8823 3279 c63 -85 74 -159 58 -409 -17 -262 -65 -500 -157 -783 -59
-180 -83 -233 -141 -316 -53 -76 -69 -94 -60 -68 12 33 -3 16 -72 -85 -38 -57
-108 -150 -154 -208 -46 -58 -190 -243 -319 -411 -130 -168 -255 -322 -277
-342 -59 -54 -92 -51 -178 15 -142 107 -151 108 -256 38 -44 -30 -80 -48 -89
-45 -9 4 -30 24 -47 46 -26 31 -38 39 -66 39 -26 0 -38 7 -55 30 -17 24 -29
30 -57 30 -30 0 -43 -8 -79 -47 -24 -26 -45 -45 -47 -42 -37 40 -85 234 -98
394 -19 222 14 600 71 820 58 224 240 747 304 873 33 65 33 75 0 31 -122 -163
-374 -802 -418 -1059 -47 -271 -57 -660 -22 -841 29 -149 87 -258 152 -285 33
-14 37 -13 64 8 15 13 33 33 39 46 6 12 14 22 19 22 12 0 42 -56 34 -64 -4 -4
-2 -7 3 -5 6 1 19 -2 29 -6 13 -6 29 -3 46 7 26 15 28 14 44 -13 19 -32 63
-59 96 -59 25 0 70 22 127 63 52 37 70 33 143 -29 54 -47 141 -94 170 -93 31
0 90 27 129 58 22 18 89 96 148 174 59 78 144 185 188 237 44 52 102 124 130
160 27 36 84 103 128 150 186 202 365 530 446 818 82 290 105 484 98 837 -4
225 -8 271 -23 283 -5 4 -24 21 -43 37 l-34 30 26 -36z"/>
<path d="M6140 3207 c-235 -20 -332 -18 -515 9 -54 9 -35 -8 34 -30 122 -39
307 -43 526 -11 34 5 34 6 -49 -52 -25 -18 -46 -39 -46 -46 0 -16 50 -70 58
-62 3 3 -5 16 -18 30 -23 25 -23 25 -4 41 42 34 144 74 239 95 55 12 107 27
115 35 19 19 -34 17 -340 -9z"/>
<path d="M5440 3181 l-45 -6 45 -7 c92 -14 240 -20 240 -10 0 5 -35 13 -77 17
-43 3 -87 8 -98 9 -11 2 -40 0 -65 -3z"/>
<path d="M8962 3070 c0 -14 2 -19 5 -12 2 6 2 18 0 25 -3 6 -5 1 -5 -13z"/>
<path d="M3076 3038 c-19 -105 57 -530 159 -887 91 -316 108 -358 308 -723 41
-75 88 -154 104 -175 17 -21 50 -69 75 -108 180 -282 424 -557 553 -622 92
-47 172 -47 222 -1 33 30 73 93 73 115 0 15 2 15 14 -3 13 -17 27 -19 131 -19
l117 0 26 31 c15 17 32 39 38 49 9 17 15 17 58 6 84 -21 126 4 151 88 10 33
13 35 80 48 76 15 192 68 209 95 8 13 8 23 0 36 -8 11 -8 25 -2 42 10 26 4
172 -12 275 -5 33 -16 139 -25 235 -29 322 -75 552 -175 885 -26 88 -51 176
-55 195 -14 70 -78 290 -85 290 -8 0 55 -382 96 -583 14 -73 36 -197 49 -277
13 -80 30 -171 39 -202 46 -161 105 -707 89 -824 -6 -47 -8 -48 -113 -74 -92
-22 -118 -40 -161 -107 -22 -35 -45 -66 -52 -69 -7 -2 -35 2 -62 11 -28 8 -55
15 -62 15 -6 0 -23 -20 -37 -45 -15 -24 -36 -50 -48 -56 -24 -13 -117 -4 -167
17 -56 23 -68 19 -102 -41 -41 -72 -84 -108 -118 -100 -82 20 -224 147 -381
340 -159 197 -271 381 -426 702 -52 107 -94 196 -94 198 0 2 -29 68 -64 147
-74 168 -183 464 -219 599 -14 52 -47 189 -72 304 -25 116 -47 215 -49 220 -1
6 -6 -7 -10 -27z"/>
<path d="M8971 3014 c0 -11 3 -14 6 -6 3 7 2 16 -1 19 -3 4 -6 -2 -5 -13z"/>
<path d="M4925 2865 c4 -66 10 -211 14 -322 3 -111 10 -205 14 -209 4 -4 4 74
1 174 l-7 182 26 25 c22 23 24 30 16 58 -12 43 -10 48 6 12 22 -47 17 -12 -5
40 -11 25 -23 44 -27 42 -5 -3 -9 5 -9 16 -1 12 -9 40 -18 62 -17 39 -17 38
-11 -80z m53 -40 c-3 -3 -9 2 -12 12 -6 14 -5 15 5 6 7 -7 10 -15 7 -18z m-15
-46 c5 -3 2 -9 -7 -12 -12 -5 -16 0 -16 15 0 12 3 17 8 12 4 -5 11 -12 15 -15z"/>
<path d="M6574 2894 c-18 -14 -18 -15 4 -4 12 6 22 13 22 15 0 8 -5 6 -26 -11z"/>
<path d="M5311 2897 c16 -13 89 -46 85 -38 -4 5 -1 12 4 14 6 3 5 4 -2 3 -7
-2 -27 3 -45 11 -30 12 -52 17 -42 10z"/>
<path d="M5428 2863 c6 -2 18 -2 25 0 6 3 1 5 -13 5 -14 0 -19 -2 -12 -5z"/>
<path d="M6504 2854 c-18 -14 -18 -15 4 -4 12 6 22 13 22 15 0 8 -5 6 -26 -11z"/>
<path d="M5471 2856 c2 -2 62 -16 133 -32 71 -15 124 -30 118 -32 -7 -2 -10
-8 -6 -13 7 -12 54 -12 54 1 0 17 29 11 51 -9 12 -11 19 -24 15 -29 -3 -5 11
-16 30 -25 39 -19 48 -21 40 -9 -3 5 18 14 47 22 59 14 91 29 83 37 -3 3 -12
0 -20 -6 -10 -8 -16 -9 -21 -1 -3 5 1 10 9 10 9 0 16 5 16 11 0 12 73 8 133
-7 17 -4 27 -2 27 5 0 6 -12 11 -27 12 -20 1 -16 4 16 10 24 5 47 11 50 15 3
4 -9 4 -28 0 -177 -33 -387 -27 -586 19 -104 23 -144 30 -134 21z"/>
<path d="M8661 2838 c-1 -29 12 -37 25 -16 4 6 3 8 -4 4 -6 -3 -12 3 -15 16
-4 20 -4 19 -6 -4z"/>
<path d="M6288 2833 c7 -3 16 -2 19 1 4 3 -2 6 -13 5 -11 0 -14 -3 -6 -6z"/>
<path d="M6454 2824 c-18 -14 -18 -15 4 -4 12 6 22 13 22 15 0 8 -5 6 -26 -11z"/>
<path d="M6238 2823 c7 -3 16 -2 19 1 4 3 -2 6 -13 5 -11 0 -14 -3 -6 -6z"/>
<path d="M5511 2773 c21 -24 196 -103 273 -123 118 -30 269 -25 371 12 46 17
209 98 220 110 6 6 1 6 -12 -1 -28 -14 -36 -14 -27 1 4 7 3 8 -5 4 -6 -4 -8
-12 -5 -18 4 -6 -1 -8 -12 -4 -11 3 -43 -1 -72 -8 -46 -13 -54 -13 -59 0 -3 9
-19 14 -42 13 -32 0 -34 -1 -13 -10 23 -9 23 -10 -20 -43 -29 -22 -61 -36 -93
-40 -34 -6 -44 -10 -34 -17 9 -6 -5 -8 -41 -8 -47 1 -50 3 -20 8 l35 6 -30 11
c-16 7 -57 17 -90 24 -33 6 -79 18 -102 24 -23 7 -40 10 -38 5 9 -13 -13 -20
-39 -13 -15 3 -23 11 -19 17 3 5 1 7 -4 4 -12 -8 -105 41 -99 52 3 4 -4 7 -14
7 -14 0 -16 -4 -9 -13z m799 -27 c0 -2 -7 -7 -16 -10 -8 -3 -12 -2 -9 4 6 10
25 14 25 6z"/>
<path d="M8702 2710 c0 -14 2 -19 5 -12 2 6 2 18 0 25 -3 6 -5 1 -5 -13z"/>
<path d="M8691 2664 c0 -11 3 -14 6 -6 3 7 2 16 -1 19 -3 4 -6 -2 -5 -13z"/>
<path d="M5000 2623 c0 -7 9 -74 21 -150 11 -76 27 -196 34 -268 8 -82 14
-113 15 -85 3 44 3 44 10 -15 l7 -60 1 50 c2 56 -22 278 -43 403 -13 72 -43
159 -45 125z"/>
<path d="M9039 2419 c-1 -46 -5 -111 -9 -144 l-7 -60 -2 59 c-2 107 -10 53
-14 -100 -3 -82 -1 -158 4 -169 6 -16 8 -14 10 15 2 27 4 23 8 -20 4 -33 10
52 15 218 5 150 6 276 2 279 -3 4 -6 -32 -7 -78z m-22 -241 c-3 -7 -5 -2 -5
12 0 14 2 19 5 13 2 -7 2 -19 0 -25z"/>
<path d="M8556 2265 c-9 -26 -7 -32 5 -12 6 10 9 21 6 23 -2 3 -7 -2 -11 -11z"/>
<path d="M8516 2177 c-16 -29 -35 -55 -42 -60 -7 -4 -10 -15 -7 -24 4 -10 2
-14 -5 -10 -6 4 -20 -7 -32 -25 l-22 -33 27 30 c32 35 27 14 -10 -45 -27 -43
-46 -50 -24 -8 21 41 3 16 -90 -124 -54 -82 -89 -145 -86 -156 2 -11 -2 -19
-11 -19 -11 0 -11 4 -2 16 10 13 9 13 -6 -1 -19 -16 -13 -44 6 -32 7 4 8 2 4
-5 -4 -6 -11 -9 -16 -6 -5 3 -14 -4 -20 -16 -8 -15 -9 -19 -1 -15 16 10 14 4
-15 -48 -14 -25 -23 -46 -21 -46 6 0 127 205 127 215 0 3 -5 3 -12 -1 -7 -4
-8 -3 -4 5 4 6 11 9 16 6 4 -3 15 6 24 20 19 29 20 39 4 29 -7 -4 -8 -3 -4 5
4 6 11 9 15 6 5 -2 20 13 35 35 31 47 34 65 5 30 l-21 -25 14 25 c9 14 20 25
27 25 15 0 68 81 130 199 54 102 67 144 17 53z m-134 -229 c-7 -7 -12 -8 -12
-2 0 14 12 26 19 19 2 -3 -1 -11 -7 -17z"/>
<path d="M8425 2197 c-23 -19 -24 -23 -8 -24 10 -1 26 10 36 23 23 30 6 31
-28 1z"/>
<path d="M8992 2115 c0 -16 2 -22 5 -12 2 9 2 23 0 30 -3 6 -5 -1 -5 -18z"/>
<path d="M4942 2105 c0 -16 2 -22 5 -12 2 9 2 23 0 30 -3 6 -5 -1 -5 -18z"/>
<path d="M8972 2001 c-7 -46 -29 -130 -47 -188 -19 -58 -32 -110 -28 -116 3
-5 2 -7 -4 -4 -5 3 -19 -14 -31 -38 -26 -55 -21 -59 8 -7 12 20 19 29 16 19
-4 -11 -3 -23 0 -29 10 -16 44 23 44 51 0 14 9 51 19 81 12 36 15 61 10 72
-12 23 -11 31 3 22 8 -5 9 -2 5 10 -4 9 0 50 9 91 8 41 14 85 12 97 -2 13 -9
-15 -16 -61z"/>
<path d="M4953 1965 c0 -22 2 -30 4 -17 2 12 2 30 0 40 -3 9 -5 -1 -4 -23z"/>
<path d="M5204 1780 c0 -52 1 -74 3 -47 2 26 2 68 0 95 -2 26 -3 4 -3 -48z"/>
<path d="M4938 1716 c-5 -77 -7 -207 -7 -290 l2 -151 9 140 c4 77 7 208 6 290
l-3 150 -7 -139z"/>
<path d="M5512 1775 c0 -16 2 -22 5 -12 2 9 2 23 0 30 -3 6 -5 -1 -5 -18z"/>
<path d="M8992 1760 c0 -19 2 -27 5 -17 2 9 2 25 0 35 -3 9 -5 1 -5 -18z"/>
<path d="M5521 1721 c-1 -25 46 -394 54 -421 2 -8 2 19 -1 60 -6 87 -52 397
-53 361z"/>
<path d="M5193 1610 c0 -41 2 -58 4 -37 2 20 2 54 0 75 -2 20 -4 3 -4 -38z"/>
<path d="M8810 1560 c-6 -11 -8 -20 -6 -20 3 0 10 9 16 20 6 11 8 20 6 20 -3
0 -10 -9 -16 -20z"/>
<path d="M8784 1518 c-4 -7 -14 -24 -22 -38 -14 -24 -13 -24 3 -5 20 24 37 55
31 55 -3 0 -8 -6 -12 -12z"/>
<path d="M8110 1500 c-6 -11 -8 -20 -6 -20 3 0 10 9 16 20 6 11 8 20 6 20 -3
0 -10 -9 -16 -20z"/>
<path d="M8715 1408 c-16 -24 -22 -38 -14 -31 15 12 53 73 46 73 -2 0 -17 -19
-32 -42z"/>
<path d="M8746 1317 c-40 -26 -76 -65 -64 -69 7 -3 18 1 25 8 7 7 22 10 33 7
12 -3 20 0 20 7 0 7 8 9 20 5 12 -4 20 -2 20 5 0 7 8 10 20 7 11 -3 18 -1 15
3 -3 5 0 12 6 16 17 10 -10 24 -46 23 -16 0 -38 -6 -49 -12z"/>
<path d="M7867 1130 c-9 -24 -15 -46 -12 -48 7 -7 37 68 33 80 -2 6 -12 -9
-21 -32z"/>
</g>
</svg>
